#!OML:ASF F:\VICON\USERDATA\INSTALL\rory3\rory3.ASF
:FULLY-SPECIFIED
:DEGREES
457
root 3.99969 16.5848 -15.7327 27.5976 6.7116 -1.77802
lowerback -14.8217 0.525232 5.27057
upperback -17.6838 0.74761 4.64398
thorax -11.2073 0.166052 2.20853
lowerneck -8.55147 -4.47385 -3.02412
upperneck 19.4262 -6.26347 2.70278
head 7.5587 -2.97732 0.814036
rclavicle -9.54166e-015 3.33958e-014
rhumerus 6.38651 35.7745 -84.6732
rradius 100.809
rwrist -96.3708
rhand 14.8728 3.32161
rfingers 7.12502
rthumb 39.7319 -21.9848
lclavicle -9.54166e-015 3.33958e-014
lhumerus -76.1467 -15.3162 95.6143
lradius 74.0049
lwrist 16.7675
lhand 35.3517 31.9869
lfingers 7.12502
lthumb 58.4432 47.3039
rfemur -43.7811 7.34457 31.3855
rtibia 31.0953
rfoot -31.7089 -31.0291
rtoes 31.9687
lfemur -22.8117 21.0381 -29.2128
ltibia 42.4606
lfoot 46.4271 28.6227
ltoes 3.80197
458
root 3.99359 16.5816 -15.7231 27.3644 6.62261 -1.97909
lowerback -14.8917 0.603369 5.02271
upperback -17.99 0.879597 4.50133
thorax -11.5485 0.250472 2.20704
lowerneck -5.94731 -4.67067 -3.23878
upperneck 18.9224 -6.77436 3.85153
head 6.9945 -3.1789 1.24323
rclavicle -3.57812e-015 -2.06736e-014
rhumerus -0.832104 34.9276 -87.524
rradius 101.932
rwrist -95.2891
rhand 19.3268 1.98436
rfingers 7.12502
rthumb 43.9075 -21.9329
lclavicle -3.57812e-015 -2.06736e-014
lhumerus -76.5306 -14.4103 94.2288
lradius 73.8036
lwrist 17.066
lhand 35.7514 31.7786
lfingers 7.12502
lthumb 58.7898 46.7696
rfemur -43.4033 6.98386 31.8477
rtibia 30.924
rfoot -31.3156 -30.8621
rtoes 31.2716
lfemur -22.5882 21.241 -28.9207
ltibia 42.5144
lfoot 50.1564 14.392
ltoes -21.2756
459
root 3.99573 16.5783 -15.7026 27.0314 6.29165 -2.19019
lowerback -14.4674 0.93448 4.80309
upperback -17.678 1.32733 4.15323
thorax -11.3779 0.475632 1.94926
lowerneck -7.46622 -5.1148 -2.78698
upperneck 19.8158 -7.6184 4.59273
head 7.60243 -3.44728 1.28668
rclavicle 2.38542e-015 2.06736e-014
rhumerus -6.06303 33.9325 -89.0895
rradius 103.102
rwrist -91.9657
rhand 19.8909 3.17682
rfingers 7.12502
rthumb 44.4334 -20.5425
lclavicle 2.38542e-015 2.06736e-014
lhumerus -75.3307 -14.144 92.5078
lradius 73.4627
lwrist 16.971
lhand 36.3301 32.9144
lfingers 7.12502
lthumb 59.2898 47.4193
rfemur -42.89 6.0512 32.5573
rtibia 30.8019
rfoot -30.6359 -29.7478
rtoes 30.0851
lfemur -22.1363 21.6584 -28.6862
ltibia 42.5153
lfoot 46.5699 28.3225
ltoes 3.54545
460
root 3.99239 16.5799 -15.701 27.2435 6.64295 -2.30332
lowerback -14.4603 0.83394 4.6929
upperback -17.7642 1.21431 4.19649
thorax -11.4917 0.43696 2.05545
lowerneck -7.41214 -5.28321 -3.28291
upperneck 19.9656 -8.00169 5.62292
head 7.72238 -3.57183 1.66752
rclavicle -2.50469e-014 9.54166e-015
rhumerus -11.685 32.8752 -90.6991
rradius 103.675
rwrist -90.4841
rhand 21.1203 3.11419
rfingers 7.12502
rthumb 45.5773 -20.1543
lclavicle -2.50469e-014 9.54166e-015
lhumerus -74.6774 -12.7411 90.85
lradius 73.0219
lwrist 16.9121
lhand 36.4506 30.3297
lfingers 7.12502
lthumb 59.3935 44.7313
rfemur -43.131 5.05828 33.1826
rtibia 30.7429
rfoot -29.8714 -29.5969
rtoes 29.8135
lfemur -22.4351 21.4428 -28.5041
ltibia 42.5483
lfoot 42.4988 32.8266
ltoes 14.3022
461
root 3.97929 16.5767 -15.7153 27.3537 6.49405 -2.07538
lowerback -13.9825 0.753745 3.89369
upperback -17.9796 1.21244 4.21463
thorax -12.0351 0.534703 2.52278
lowerneck -6.88694 -5.48999 -3.7998
upperneck 19.7881 -8.39482 6.50381
head 7.65012 -3.73386 2.0176
rclavicle -4.77083e-015 1.90833e-014
rhumerus -17.5743 31.3969 -92.1532
rradius 103.999
rwrist -89.3692
rhand 22.1935 2.82454
rfingers 7.12502
rthumb 46.5727 -20.0276
lclavicle -4.77083e-015 1.90833e-014
lhumerus -74.6791 -11.3672 89.4726
lradius 72.6142
lwrist 17.3141
lhand 36.6525 31.2463
lfingers 7.12502
lthumb 59.5672 45.4731
rfemur -43.2983 5.22728 32.8867
rtibia 30.7441
rfoot -30.0398 -29.4331
rtoes 30.0418
lfemur -22.6172 21.4037 -28.796
ltibia 42.5619
lfoot 43.8892 34.2229
ltoes 13.7709
462
root 3.97813 16.5712 -15.7117 27.4187 6.34492 -2.04979
lowerback -15.7576 0.890069 3.62822
upperback -16.7411 1.19829 4.0795
thorax -9.50474 0.554891 2.49238
lowerneck -7.43538 -5.76891 -3.7951
upperneck 18.5265 -8.86963 7.50697
head 7.41017 -3.88546 2.28461
rclavicle 2.18663e-014 -3.81667e-014
rhumerus -20.5463 29.3562 -92.106
rradius 103.781
rwrist -88.7582
rhand 23.4002 2.49035
rfingers 7.12502
rthumb 47.6884 -19.8665
lclavicle 2.18663e-014 -3.81667e-014
lhumerus -72.2938 -10.3325 87.5055
lradius 71.7128
lwrist 18.0889
lhand 36.8058 32.8854
lfingers 7.12502
lthumb 59.6988 46.9781
rfemur -43.3595 4.48322 33.2179
rtibia 30.7254
rfoot -29.2967 -28.6433
rtoes 29.1952
lfemur -22.6419 21.4268 -28.8769
ltibia 42.6058
lfoot 39.5665 39.3157
ltoes 23.2457
463
root 3.97705 16.566 -15.708 27.5218 6.28402 -2.16046
lowerback -14.5138 0.855509 2.70199
upperback -17.3714 1.3833 4.56873
thorax -11.0068 0.798629 3.56566
lowerneck -7.41905 -6.0883 -4.37244
upperneck 18.852 -9.28223 7.61528
head 7.57222 -4.10526 2.37258
rclavicle 3.18055e-015 6.36111e-015
rhumerus -27.0107 27.4535 -92.4066
rradius 103.748
rwrist -88.8557
rhand 27.5555 1.36349
rfingers 7.12502
rthumb 51.4964 -19.0366
lclavicle 3.18055e-015 6.36111e-015
lhumerus -73.2235 -8.77926 86.9645
lradius 70.9665
lwrist 18.9922
lhand 36.8175 34.1194
lfingers 7.12502
lthumb 59.7088 48.2018
rfemur -43.4712 3.88482 33.6434
rtibia 30.6867
rfoot -28.5232 -28.2006
rtoes 28.0215
lfemur -22.7354 21.4321 -28.7931
ltibia 42.6028
lfoot 42.822 35.321
ltoes 15.6291
464
root 3.97863 16.5589 -15.7 27.3848 6.17795 -2.54851
lowerback -13.9737 1.05173 2.85318
upperback -17.3122 1.66514 4.54926
thorax -11.2463 0.921369 3.46488
lowerneck -7.87722 -6.37265 -4.09822
upperneck 18.6027 -9.74414 7.89461
head 7.60553 -4.2747 2.35794
rclavicle -2.8625e-014 -1.90833e-014
rhumerus -31.7796 25.1171 -92.5846
rradius 103.378
rwrist -89.5018
rhand 25.1174 1.39324
rfingers 7.12502
rthumb 49.269 -20.205
lclavicle -2.8625e-014 -1.90833e-014
lhumerus -73.278 -7.87468 85.4965
lradius 69.8358
lwrist 20.7708
lhand 36.0145 32.9705
lfingers 7.12502
lthumb 59.0174 47.7426
rfemur -43.2477 3.28139 34.3962
rtibia 30.5566
rfoot -27.7732 -27.7083
rtoes 26.6269
lfemur -22.599 21.7134 -28.3605
ltibia 42.6416
lfoot 47.7118 25.0945
ltoes -3.44588
465
root 3.98823 16.5465 -15.6842 27.0264 5.83054 -2.91665
lowerback -13.1181 1.29912 2.97764
upperback -17.3062 2.04224 4.5356
thorax -11.7384 1.09419 3.3818
lowerneck -8.32763 -6.62287 -3.8075
upperneck 18.652 -10.149 7.96296
head 7.71953 -4.42641 2.27565
rclavicle -3.97569e-015 -2.8625e-014
rhumerus -36.6432 22.8326 -92.4955
rradius 102.709
rwrist -90.2474
rhand 25.5677 2.26012
rfingers 7.12502
rthumb 49.6819 -19.1281
lclavicle -3.97569e-015 -2.8625e-014
lhumerus -73.5981 -6.97608 84.0685
lradius 68.6025
lwrist 22.4383
lhand 36.0279 32.2177
lfingers 7.12502
lthumb 59.029 46.9785
rfemur -42.7178 2.20091 35.3118
rtibia 30.4248
rfoot -26.8174 -26.6465
rtoes 25.4355
lfemur -22.1558 22.1785 -27.981
ltibia 42.7312
lfoot 49.5297 17.8312
ltoes -16.7161
466
root 3.98659 16.5345 -15.6893 27.0549 5.89327 -3.14337
lowerback -12.7847 1.4181 2.77445
upperback -16.8659 2.21855 4.66677
thorax -11.4014 1.21511 3.62651
lowerneck -10.7438 -6.94703 -3.29711
upperneck 19.0174 -10.6351 7.71367
head 8.26999 -4.56019 1.97226
rclavicle 0 2.70347e-014
rhumerus -39.767 20.21 -91.0782
rradius 101.482
rwrist -91.5622
rhand 26.0956 2.46956
rfingers 7.12502
rthumb 50.1651 -18.6661
lclavicle 0 2.70347e-014
lhumerus -72.6177 -5.93974 82.6658
lradius 66.9118
lwrist 24.2772
lhand 36.5862 32.5295
lfingers 7.12502
lthumb 59.5101 46.814
rfemur -42.735 1.54705 35.9562
rtibia 30.3327
rfoot -26.4908 -26.037
rtoes 25.4406
lfemur -22.3483 22.0925 -27.731
ltibia 42.9177
lfoot 50.0016 14.9437
ltoes -21.6742
467
root 3.98403 16.5339 -15.7118 27.7251 6.28159 -3.0034
lowerback -12.6153 1.34315 2.42421
upperback -17.931 2.22671 4.62442
thorax -12.8598 1.28188 3.80368
lowerneck -7.2135 -6.96823 -3.54621
upperneck 17.7529 -10.6433 8.18515
head 7.25719 -4.68297 2.29924
rclavicle 5.56597e-015 2.38542e-014
rhumerus -46.0108 17.5092 -90.6022
rradius 100.728
rwrist -91.9308
rhand 24.239 2.98858
rfingers 7.12502
rthumb 48.4616 -19.006
lclavicle 5.56597e-015 2.38542e-014
lhumerus -74.9795 -5.59471 81.4493
lradius 65.4224
lwrist 26.1942
lhand 37.1404 31.8763
lfingers 7.12502
lthumb 59.9854 45.6719
rfemur -43.4828 1.25882 36.0285
rtibia 29.9476
rfoot -26.0206 -26.145
rtoes 25.4137
lfemur -23.5878 21.3644 -28.0078
ltibia 43.5972
lfoot 49.9824 13.2051
ltoes -24.5381
